<?xml version="1.0" encoding="UTF-8"?>
<svg width="196px" height="233px" viewBox="0 0 196 233" version="1.1" xmlns="http://www.w3.org/2000/svg" xmlns:xlink="http://www.w3.org/1999/xlink">
    <title>horus_white</title>
    <g id="Page-1" stroke="none" stroke-width="1" fill="none" fill-rule="evenodd">
        <g id="horus_white" fill="#FFFFFF" fill-rule="nonzero">
            <path d="M192.39,55.38 C189.515,61.23 185.082,67.177 179.89,72.875 L179.89,72.875 C178.416,74.493 177.336,75.924 176.51,77.208 L176.51,77.208 C176.594,90.442 176.795,116.217 176.883,119.889 L176.883,119.889 C177.423,142.223 169.33,161.341 152.135,178.336 L152.135,178.336 C149.753,180.692 147.282,182.868 144.736,185.05 L144.736,185.05 C147.094,183.029 139.257,190.224 126.416,198.495 L126.416,198.495 C117.666,203.898 108.112,208.597 97.629,212.638 L97.629,212.638 C76.295,204.39 58.602,193.148 43.62,178.336 L43.62,178.336 C40.906,175.653 38.434,172.916 36.173,170.124 L36.173,170.124 L36.158,170.124 L36.076,170.002 C33.016,166.212 30.355,162.318 28.118,158.306 L28.118,158.306 C28.132,158.298 28.147,158.289 28.161,158.281 L28.161,158.281 L24.801,153.306 C15.016,151.185 6.613,145.312 1.191,137.266 L1.191,137.266 C1.884,141.694 2.867,146.017 4.178,150.23 L4.178,150.23 C6.65,157.797 7.48,159.31 11.783,167.784 L11.783,167.784 C16.527,176.179 22.703,184.142 30.379,191.729 L30.379,191.729 C48.072,209.223 69.009,222.245 94.387,231.541 L94.387,231.541 L97.628,232.727 L100.867,231.541 C126.783,222.048 147.884,209.025 165.377,191.73 L165.377,191.73 C186.462,170.888 196.384,147.24 195.712,119.437 L195.712,119.437 C195.65,116.827 195.594,80.11 195.558,48.069 L195.558,48.069 C194.591,50.53 193.565,52.991 192.39,55.38" id="Fill-1"></path>
            <path d="M195.511,0 L195.511944,1.22318759 C195.511981,1.2701634 195.512019,1.31843329 195.512058,1.36798697 L195.512873,2.39637658 C195.512925,2.4609648 195.512978,2.526775 195.513031,2.59379688 L195.513916,3.688713 C195.51398,3.7675941 195.514045,3.84763537 195.514112,3.92882651 L195.514957,4.95765462 C195.515031,5.0478799 195.515107,5.13921384 195.515183,5.23164614 L195.515901,6.09291458 C195.515983,6.19184436 195.516067,6.2918416 195.516152,6.392896 L195.516943,7.33065079 C195.517034,7.43795544 195.517126,7.54628635 195.517218,7.65563322 L195.517788,8.32382346 C195.517885,8.43719295 195.517983,8.55155779 195.518082,8.66690768 L195.518688,9.37074525 C195.518791,9.48999415 195.518895,9.6102075 195.519,9.731375 L195.519972,10.8473664 C195.520083,10.9741661 195.520195,11.1018891 195.520308,11.2305249 L195.520998,12.0132132 C195.521348,12.4099526 195.521708,12.8147231 195.522077,13.2272465 L195.522825,14.0625483 C195.522952,14.2034607 195.52308,14.3452139 195.523209,14.4877977 L195.523993,15.3531843 C195.524656,16.0825078 195.525343,16.8320797 195.526054,17.6006124 L195.526919,18.5318704 C195.531157,23.0761431 195.5362,28.24093 195.542,33.775 L195.542,33.775 L195.442117,34.0862916 C194.344612,37.5067612 193.295206,40.7775294 193.104,41.29 L193.104,41.29 L192.693114,42.3894388 C191.317727,46.0633306 189.877727,49.8166364 188.165,53.303 L188.165,53.303 L187.822707,53.9857159 C185.03159,59.4464048 180.98496,64.8734 176.472,69.635 L176.472,69.635 L176.471,69.637375 L176.47,69.639 L175.95437,70.211963 C175.609333,70.593 175.261333,70.9716667 174.908,71.345 L174.908,71.345 L174.326274,71.9553941 C169.07746,77.4331224 163.461357,82.4728929 156.775,86.196 L156.775,86.196 L155.658693,86.8206836 C153.056047,88.2835469 150.462875,89.77225 147.774,91.055 L147.774,91.055 L147.568602,91.1527388 C144.960558,92.3911062 144.756597,92.406215 144.742904,95.1765247 L144.742,95.625 L144.741822,96.0220788 L144.741822,96.0220788 L144.741144,97.7726658 C144.74109,97.9291059 144.741037,98.0881335 144.740984,98.2497095 L144.740089,101.424872 C144.740042,101.615624 144.739996,101.80869 144.739951,102.004031 L144.739072,106.427248 C144.739034,106.652528 144.738996,106.879811 144.738958,107.109056 L144.738058,113.747202 C144.738029,114.008617 144.738,114.271644 144.737971,114.536244 L144.737054,125.567149 C144.737035,125.866038 144.737016,126.165992 144.736998,126.466972 L144.736,178.946 L144.418223,179.220962 C140.310957,182.765825 133.115641,188.634564 126.414,193.14 L126.414,193.14 L126.414015,187.535383 C126.414006,187.327526 126.413996,187.114673 126.413985,186.896954 L126.413084,174.256086 C126.413055,173.921788 126.413025,173.584584 126.412994,173.244604 L126.412011,163.48597 C126.411969,163.106615 126.411926,162.725661 126.411882,162.343239 L126.411031,155.329211 C126.410979,154.933866 126.410928,154.537835 126.410875,154.14125 L126.410039,148.167234 C126.40998,147.768373 126.40992,147.36961 126.40986,146.971077 L126.409104,142.208064 C126.409038,141.813458 126.408972,141.419605 126.408905,141.026635 L126.40807,136.36173 C126.407998,135.977913 126.407925,135.595502 126.407852,135.214626 L126.407172,131.831754 C126.407094,131.461272 126.407016,131.092717 126.406937,130.726222 L126.406209,127.486878 C126.406126,127.133911 126.406042,126.783395 126.405958,126.43546 L126.405181,123.377274 C126.405093,123.046003 126.405004,122.717706 126.404914,122.392513 L126.404089,119.553111 C126.403995,119.247718 126.403901,118.945821 126.403805,118.647551 L126.403226,116.902492 C126.403129,116.619251 126.40303,116.339898 126.402931,116.064563 L126.402019,113.698579 C126.401916,113.448531 126.401812,113.202894 126.401707,112.961799 L126.401071,111.570764 C126.400963,111.348356 126.400855,111.13075 126.400746,110.918078 L126.400085,109.702286 C126.399973,109.509869 126.399861,109.322646 126.399748,109.140748 L126.399061,108.114309 C126.398945,107.954235 126.398829,107.799747 126.398712,107.650976 L126.398,106.828 L126.395499,106.525427 C126.37671,105.313018 126.256,104.062462 126.16,102.316 L126.16,102.316 L125.796562,102.475605 C124.492903,103.041125 123.500917,103.400917 122.598,103.917 L122.598,103.917 L115.878,107.781963 C111.402222,110.366111 106.931333,112.959 102.444,115.523 L102.444,115.523 L95.5564844,119.441797 C88.6635625,123.352063 81.75925,127.24475 74.887,131.192 L74.887,131.192 L74.8218497,131.229392 C73.0493619,132.247401 63.5776026,137.738385 51.843,144.544 L51.843,144.544 L51.825,144.473 L51.203198,144.868175 C49.3238,146.03318 47.3195,147.0131 45.218,147.797 L45.218,147.797 L45.153,147.83 L45.131,147.826 L44.511806,148.047965 C41.1947093,149.200405 37.6437059,149.848765 33.943,149.893 L33.943,149.893 L33.61075,149.894875 L33.61075,149.894875 L33.277,149.896 L32.5584733,149.882938 C30.6472963,149.82842 28.7758889,149.616667 26.959,149.254 L26.959,149.254 L26.95825,149.253875 L26.956,149.253 L26.51325,149.1565 L26.51325,149.1565 L26.072,149.054 L25.3261389,148.869352 C24.0883611,148.549028 22.8776667,148.166667 21.701,147.735 L21.701,147.735 L21.2545,147.56875 L21.2545,147.56875 L20.811,147.395 L20.821,147.409 L20.82,147.409 L20.4128573,147.246646 C8.10880529,142.247028 1.42108547e-14,130.451196 1.42108547e-14,116.364 L1.42108547e-14,116.364 L0.00581481481,115.764333 C0.0134444444,115.365444 0.0283333333,114.968333 0.049,114.573 L0.049,114.573 L0.053,114.004 L0.092,114.004 L0.128751175,113.524508 C1.14474279,101.40129 8.60280519,91.111026 19.076,86.097 L19.076,86.097 L19.610957,85.846724 C23.7319583,83.9633194 28.30225,82.896375 33.115,82.836 L33.115,82.836 L33.3265,82.82975 L33.3265,82.82975 L33.538,82.825 L34.0525267,82.8288691 C45.0092873,82.9937553 54.6857692,88.4161231 60.687,96.68 L60.687,96.68 L60.9379551,96.9638398 C61.5104375,97.6373438 61.990375,98.38875 62.357,99.206 L62.357,99.206 L62.633875,99.67975 L62.633875,99.67975 L62.904,100.158 L62.753,100.231 L62.8519531,100.568463 C63.068625,101.361828 63.185,102.19625 63.185,103.059 L63.185,103.059 L63.1812497,103.327586 C63.039052,108.413365 58.8711897,112.492 53.752,112.492 L53.752,112.492 L53.4344955,112.486755 C50.2724194,112.382128 47.5075806,110.720484 45.875,108.245 L45.875,108.245 L45.782,108.289 L45.570219,107.97716 C43.4135411,104.887693 40.0978387,102.673 36.253,101.953 L36.253,101.953 L35.8108472,101.876722 C35.0703611,101.759361 34.3121667,101.692 33.538,101.692 L33.538,101.692 L33.2021247,101.695774 C26.0564684,101.856512 20.1886,107.133354 19.075,114.004 L19.075,114.004 L19.005,114.482333 C18.9636667,114.802778 18.933,115.126333 18.913,115.453 L18.913,115.453 L18.904,117.094 L18.9231531,117.412043 C19.4634795,125.023155 25.7906027,131.035 33.538,131.035 L33.538,131.035 L34.029342,131.026579 C35.49681,130.97626 36.9045,130.7023 38.232,130.255 L38.232,130.255 L38.231,130.265 L38.285,130.235 L38.3501209,130.209226 C41.0023377,129.072388 93.14244,99.77807 96.255,98.003 L96.255,98.003 L96.1905407,97.9740314 C94.4849394,97.2352913 80.0942639,92.7474722 74.22,89.728 L74.22,89.728 L73.3796123,89.2906833 C65.2831033,85.02723 57.9781,79.7143333 51.601,73.025 L51.601,73.025 L50.9331091,72.317414 C45.6238544,66.6359328 41.12852,60.45288 37.517,53.586 L37.517,53.586 L37.4062489,53.3827479 C36.5821701,51.9273233 35.4887826,51.2428696 33.636,51.262 L33.636,51.262 L33.4743257,51.2635045 C32.2959328,51.2738962 30.150445,51.2813619 27.8591819,51.2866769 L27.2012782,51.2881376 C27.0912029,51.2883715 26.9809745,51.2886007 26.8706815,51.2888253 L26.2088594,51.2901179 C25.1068976,51.2921821 24.0162231,51.2938003 23.0255216,51.2950565 L22.443807,51.2957674 C22.3490906,51.2958788 22.2555512,51.2959868 22.1632776,51.2960915 L21.3693862,51.2969445 C21.2855055,51.2970297 21.2031567,51.2971117 21.1224284,51.2971907 L20.2371502,51.2979986 C20.1708052,51.2980546 20.1064354,51.298108 20.0441295,51.2981588 L18.8552959,51.2989951 L18.8552959,51.2989951 L18.846,51.299 L18.846,65.365 L18.8421825,65.6337714 C18.6999821,70.6334761 14.6031228,74.6430175 9.57,74.644 L9.57,74.644 L9.292,74.644 L9.02322773,74.6402323 C4.02348938,74.498912 0.013,70.4000877 0.013,65.365 L0.013,65.365 L0.013,0 L195.511,0 Z M176.676,18.835 L18.846,18.835 L18.846,32.952 L19.12,32.952 L19.12,32.986 L32.207,32.9855 L32.207,32.9855 L45.294,32.988 L45.7248688,32.9886816 C48.4577551,32.9989569 48.4633333,33.1666667 49.59,36.06 L49.59,36.06 L49.8594471,36.7441719 C54.9349323,49.4801908 62.5825088,60.2409123 73.979,68.244 L73.979,68.244 L74.7331618,68.7654334 C79.7772585,72.1991361 85.1490952,74.7885238 90.891,76.899 L90.891,76.899 L91.6479388,77.171078 C99.7280808,80.0103205 108.004121,80.8438485 116.456,80.423 L116.456,80.423 L117.294704,80.3753553 C122.879354,80.0200567 128.330238,78.9107143 133.675,77.005 L133.675,77.005 L134.613377,76.6649339 C138.977516,75.0568089 143.1334,73.1482667 147.129,70.758 L147.129,70.758 L147.872377,70.3049123 C152.79761,67.248737 157.114571,63.485381 161.066,59.293 L161.066,59.293 L161.610917,58.7084366 C165.581603,54.4017996 168.989565,49.6568696 171.532,44.352 L171.532,44.352 L172.044857,43.283124 C173.5805,40.08474 175.0916,36.945 176.627,33.444 L176.627,33.444 L176.626,33.209 L176.676,18.835 Z M112.246,33.6199961 L112.814136,33.6199961 L112.814136,33.6199961 L114.517302,33.6208753 C132.667851,33.6349484 150.12956,33.81812 151.631,34.181 L151.631,34.181 L151.448963,34.8088751 C149.827749,40.2262881 147.076778,45.0158519 143.405,49.224 L143.405,49.224 L143.008857,49.6726967 C135.445098,58.1328537 125.7725,62.8820517 114.515,63.683 L114.515,63.683 L113.903137,63.7217049 C93.7314925,64.8402207 75.56623,50.29026 72.421,34.179 C73.54916,33.8534 88.632008,33.667192 105.347849,33.6278695 L106.489951,33.6254161 C106.680675,33.6250452 106.871574,33.6246933 107.062629,33.6243603 L108.210695,33.6225908 C108.785523,33.6218201 109.361436,33.6212206 109.937944,33.6207926 L111.66877,33.6199961 L111.66877,33.6199961 L112.246,33.6199961 Z" id="Combined-Shape"></path>
        </g>
    </g>
</svg>