<?xml version="1.0" encoding="UTF-8"?>
<svg width="22px" height="22px" viewBox="0 0 22 22" version="1.1" xmlns="http://www.w3.org/2000/svg" xmlns:xlink="http://www.w3.org/1999/xlink">
    <title>B143DFCB-D8A9-4BA4-AC5E-D3925F25600A</title>
    <defs>
        <path d="M11,0 C17.065,0 22,4.935 22,11 C22,17.065 17.065,22 11,22 C4.935,22 0,17.065 0,11 C0,4.935 4.935,0 11,0 Z M8.50287865,18.8506982 C7.80163575,19.0009645 7.22886034,19.0110845 6.76276777,18.9382428 C7.31157889,19.2327176 7.89387494,19.4714417 8.50249295,19.6475004 Z M11,2 C6.038,2 2,6.038 2,11 C2,13.570125 3.08289477,15.891919 4.81622175,17.5333361 L4.85250991,17.5663912 L4.85250991,17.5663912 C4.421246,16.2728249 3.6693663,15.9505908 3.6693663,15.9505908 C2.78322237,15.3598281 3.61193104,15.3105979 3.75620293,15.3064954 L3.77677768,15.3061224 C4.85089154,15.4135338 5.38794847,16.4876477 5.38794847,16.4876477 C6.35465094,18.2062299 7.85841034,17.7765843 8.50287865,17.4543502 C8.61029004,16.7024705 8.82511281,16.2728249 9.14734696,15.9505908 C6.6768851,15.6283566 4.20642323,14.6616541 4.20642323,10.4726101 C4.20642323,9.18367347 4.63606877,8.216971 5.28053708,7.4650913 C5.1731257,7.14285714 4.74348015,6.06874329 5.28053708,4.4575725 C5.28053708,4.4575725 5.28546924,4.45647647 5.29537269,4.45494985 L5.3400361,4.44974368 C5.57865848,4.4290756 6.53878474,4.44222802 8.28805588,5.63909774 C9.14734696,5.42427497 10.1140494,5.31686359 10.9733405,5.31686359 C11.940043,5.31686359 12.7993341,5.42427497 13.7660365,5.63909774 C15.8068529,4.13533835 16.666144,4.4575725 16.666144,4.4575725 C17.2032009,5.9613319 16.8809667,7.03544576 16.7735553,7.35767991 C17.4180237,8.216971 17.8476692,9.18367347 17.8476692,10.3651987 C17.8476692,14.6616541 15.2697959,15.5209452 12.9067455,15.8431794 C13.336391,16.1654135 13.6586252,16.8098818 13.6586252,17.8839957 L13.6586252,17.8839957 L13.658975,18.3709652 C13.6599352,18.8099009 13.6635312,19.2270914 13.6769981,19.593596 C17.3371361,18.4507623 20,15.0307827 20,11 C20,6.038 15.963,2 11,2 Z" id="path-1"></path>
    </defs>
    <g id="DS---Website" stroke="none" stroke-width="1" fill="none" fill-rule="evenodd">
        <g id="Website-/-Desktop-/-Design-tokens-/-Icons-/-Specs-" transform="translate(-647.000000, -9296.000000)">
            <g id="Icons" transform="translate(590.000000, 784.000000)">
                <g id="Icons/logos/GitHub" transform="translate(57.000000, 8512.000000)">
                    <mask id="mask-2" fill="white">
                        <use xlink:href="#path-1"></use>
                    </mask>
                    <use id="icon-card-github" fill="#B9B9BE" xlink:href="#path-1"></use>
                </g>
            </g>
        </g>
    </g>
</svg>