<?xml version="1.0" encoding="UTF-8"?>
<svg width="24px" height="24px" viewBox="0 0 24 24" version="1.1" xmlns="http://www.w3.org/2000/svg" xmlns:xlink="http://www.w3.org/1999/xlink">
    <title>icons / folder</title>
    <defs>
        <path d="M3,2 C2.449,2 2,2.449 2,3 L2,17 C2,17.552 2.449,18 3,18 L19,18 C19.552,18 20,17.552 20,17 L20,6 C20,5.449 19.552,5 19,5 L10,5 C9.666,5 9.354,4.833 9.168,4.555 L7.465,2 L3,2 Z M19,20 L3,20 C1.346,20 0,18.654 0,17 L0,3 C0,1.346 1.346,0 3,0 L8,0 C8.334,0 8.646,0.167 8.832,0.445 L10.535,3 L19,3 C20.654,3 22,4.346 22,6 L22,17 C22,18.654 20.654,20 19,20 L19,20 Z" id="path-1"></path>
    </defs>
    <g id="icons-/-folder" stroke="none" stroke-width="1" fill="none" fill-rule="evenodd">
        <g id="Icons/Miscellaneous/Folder/Folder" transform="translate(1.000000, 2.000000)">
            <mask id="mask-2" fill="white">
                <use xlink:href="#path-1"></use>
            </mask>
            <use id="Icon-Folder" fill="#000000" xlink:href="#path-1"></use>
        </g>
    </g>
</svg>
