<?xml version="1.0" encoding="UTF-8"?>
<svg width="20px" height="20px" viewBox="0 0 20 20" version="1.1" xmlns="http://www.w3.org/2000/svg" xmlns:xlink="http://www.w3.org/1999/xlink">
    <title>E9F363B8-0B7A-47D7-BAD8-AB87EFEB675A</title>
    <defs>
        <path d="M7.50396003,4.715503 C10.955399,1.16182671 14.9117268,-0.392445548 19.259835,0.0838372489 L19.259835,0.0838372489 L19.3540918,0.10105229 C19.6655492,0.188767022 19.8802908,0.436335705 19.914715,0.736369274 C20.3925562,5.04832713 18.8606779,8.97335645 15.3633399,12.4040682 C14.4945379,13.2566226 13.492137,14.0837643 12.3856439,14.8625399 L12.3856439,14.8625399 L12.3864635,14.9912429 C12.3585963,16.0766102 11.9135401,17.1972274 11.1947294,17.9940379 L11.1947294,17.9940379 L11.0496559,18.149793 L9.35303303,19.836867 C9.19484549,19.9516339 9.04485419,20 8.89076478,20 C8.75224823,20 8.6178298,19.9606513 8.49980387,19.8868726 C8.24572025,19.7294779 8.11539995,19.4474792 8.15965968,19.1507247 C8.27768561,18.3489956 8.34243595,17.7300739 8.35554994,17.2718259 L8.35554994,17.2718259 L7.15889809,17.8956662 C6.88514349,18.0030553 6.62286364,17.9710845 6.41631825,17.8186084 L6.41631825,17.8186084 L6.33763429,17.7522075 L5.43686691,16.8521068 L5.34506896,16.9193274 C4.19103758,17.7472889 3.21814324,18.1850428 2.52965861,18.1850428 C2.10509309,18.1850428 1.77396477,17.8776314 1.75921153,17.469389 C1.74281904,17.0070422 1.95264292,16.1339937 3.04274358,14.5928376 L3.04274358,14.5928376 L3.1001173,14.5125008 L2.19771067,13.6017431 C2.0018204,13.3164653 1.99280453,13.0024958 2.15099207,12.7524678 L2.15099207,12.7524678 L2.75505536,11.5761067 C2.66981441,11.5793857 2.57801646,11.5769264 2.48048114,11.581845 C1.9952634,11.6039786 1.40267485,11.696612 0.931390729,11.8228556 C0.60763903,11.9097506 0.265035966,11.7662919 0.0986521817,11.477735 C-0.0480606136,11.2227885 -0.0300288734,10.9055398 0.145370781,10.6686281 L0.145370781,10.6686281 L0.208481872,10.5932098 L2.00427927,8.80448509 C2.90340741,7.98718053 4.08038827,7.53385112 5.17376742,7.541229 L5.17376742,7.541229 L5.43850615,7.17315503 C6.09994317,6.27141479 6.79416517,5.44509283 7.50396003,4.715503 Z M10.7144294,15.9528259 L10.62591,16.00775 C10.3513357,16.1741621 10.0775811,16.3340161 9.80218728,16.4897712 L9.80218728,16.4897712 L9.80710503,16.5242013 C9.83251339,16.7397992 9.84234889,16.9824493 9.83579189,17.264448 L9.83579189,17.264448 L10.125939,16.9701528 C10.3734656,16.688154 10.5775521,16.3356556 10.7144294,15.9528259 L10.7144294,15.9528259 Z M7.21627181,15.3707935 L7.1121795,15.4675257 C6.96300783,15.6036065 6.81793428,15.7331292 6.67531961,15.8593728 L6.67531961,15.8593728 L6.6015534,15.9224946 L6.98677694,16.3077836 L7.75476515,15.9085586 L7.21627181,15.3707935 Z M7.45806106,12.4860445 C6.99825168,12.515556 6.72367746,12.6344218 6.42287524,12.9369147 C5.21147015,14.1485256 4.32217751,15.2363523 3.77384868,16.1790807 C4.69756556,15.6347575 5.78438772,14.7420347 7.0056283,13.5197668 C7.29741464,13.2279308 7.42445645,12.9442925 7.45806106,12.4860445 Z M13.824085,2.1734153 L13.6913058,2.22260114 C10.4537888,3.45962479 7.52363102,6.27961243 4.9860734,10.6038667 L4.9860734,10.6038667 L4.82296811,10.884226 L5.61390581,11.6744783 L5.65160854,11.6425075 C5.82536894,11.5039675 6.00240785,11.39084 6.18518412,11.300666 C6.65810749,11.0711321 7.03513479,11.0030917 7.86459484,10.9973534 L7.86459484,10.9973534 L8.28834073,11.0030917 C8.68913714,11.0735914 8.94567962,11.3744448 8.94567962,11.7376001 L8.94567962,11.7376001 L8.94240113,12.2671676 C8.91863201,13.2008786 8.75060898,13.7288065 8.29981547,14.2919843 L8.29981547,14.2919843 L8.26785012,14.3288737 L9.10468679,15.1650328 L9.38663763,15.00108 C13.7576954,12.4171844 16.5927767,9.44554042 17.8140173,6.16812455 L17.8140173,6.16812455 L17.7353333,6.14189211 C16.8911201,5.83120161 16.1059197,5.31475038 15.393666,4.60401512 C14.6633805,3.87278577 14.1232479,3.03580687 13.824085,2.1734153 L13.824085,2.1734153 Z M4.08530602,12.2384759 L3.68942736,13.0098736 L4.02301455,13.3435175 L4.08530602,13.2713783 C4.20906932,13.1262801 4.33775038,12.9836412 4.47134918,12.8360837 L4.47134918,12.8360837 L4.572163,12.7254156 L4.08530602,12.2384759 Z M4.05743878,9.23732041 C3.69270585,9.38159884 3.34436542,9.59473744 3.04520246,9.8587014 L3.04520246,9.8587014 L2.80013471,10.0947934 C3.05913607,10.0988922 3.29846644,10.1210258 3.51484733,10.1603745 L3.51484733,10.1603745 L3.72549084,9.79394006 C3.8345009,9.6070339 3.94515022,9.42176727 4.05743878,9.23732041 Z M11.0288374,5.7124998 C11.9271459,4.81403862 13.3893561,4.81567815 14.2860254,5.7124998 C14.721246,6.14697464 14.9605764,6.72572792 14.9605764,7.34055081 C14.9605764,7.95619346 14.721246,8.53494674 14.2860254,8.96942158 C13.8516244,9.40389642 13.2729694,9.64326746 12.6574314,9.64326746 C12.0418933,9.64326746 11.4632384,9.40389642 11.0288374,8.96942158 C10.1313485,8.0709604 10.1313485,6.61014122 11.0288374,5.7124998 Z M17.7353333,1.47825556 C16.8919397,1.47825556 16.055103,1.57006911 15.2477728,1.75123692 L15.2477728,1.75123692 L15.2633457,1.79878322 C15.4936602,2.41278635 15.8903585,3.00629538 16.4419658,3.55635692 C16.9935731,4.10887776 17.6107504,4.51793992 18.236124,4.74829356 L18.236124,4.74829356 L18.2853014,4.53269567 C18.4885683,3.55553716 18.559056,2.53657069 18.4951253,1.504488 L18.4951253,1.504488 Z" id="path-1"></path>
    </defs>
    <g id="DS---Website" stroke="none" stroke-width="1" fill="none" fill-rule="evenodd">
        <g id="Website-/-Desktop-/-Design-tokens-/-Icons-/-Specs-" transform="translate(-1208.000000, -6833.000000)">
            <g id="Icons" transform="translate(590.000000, 784.000000)">
                <g id="Icons/Miscellaneous/Rocket" transform="translate(618.000000, 6049.000000)">
                    <mask id="mask-2" fill="white">
                        <use xlink:href="#path-1"></use>
                    </mask>
                    <use fill="#000000" xlink:href="#path-1"></use>
                </g>
            </g>
        </g>
    </g>
</svg>
