<?xml version="1.0"?>
<svg xmlns="http://www.w3.org/2000/svg" xmlns:xlink="http://www.w3.org/1999/xlink" xmlns:svgjs="http://svgjs.com/svgjs" version="1.1" width="512" height="512" x="0" y="0" viewBox="0 0 464 464" style="enable-background:new 0 0 512 512" xml:space="preserve" class=""><circle r="232" cx="232" cy="232" fill="#000000" shape="circle"/><g transform="matrix(0.7,0,0,0.7,69.59999990557975,69.60000000000002)">
<path xmlns="http://www.w3.org/2000/svg" style="" d="M160,272l32,32L38.624,457.376c-4.244,4.243-9.999,6.625-16,6.624C10.129,464,0,453.871,0,441.376  c-0.001-6.001,2.381-11.756,6.624-16L160,272z" fill="#ffffff" data-original="#faa41b" class=""/>
<circle xmlns="http://www.w3.org/2000/svg" style="" cx="288" cy="176" r="176" fill="#ffffff" data-original="#ee2849" class=""/>
<circle xmlns="http://www.w3.org/2000/svg" style="" cx="288" cy="176" r="144" fill="#000000" data-original="#75e6ff" class=""/>
<path xmlns="http://www.w3.org/2000/svg" style="" d="M144,176c35.586,40.672,86.998,64.001,141.04,64h5.92c54.042,0.001,105.454-23.328,141.04-64  c-35.586-40.672-86.998-64.001-141.04-64h-5.92C230.998,111.999,179.586,135.328,144,176L144,176z" fill="#000000" data-original="#eff2fa" class=""/>
<circle xmlns="http://www.w3.org/2000/svg" style="" cx="288" cy="176" r="64" fill="#000000" data-original="#505968" class=""/>
<circle xmlns="http://www.w3.org/2000/svg" style="" cx="288" cy="176" r="24" fill="#000000" data-original="#a6adb9" class=""/>
<g xmlns="http://www.w3.org/2000/svg">
</g>
<g xmlns="http://www.w3.org/2000/svg">
</g>
<g xmlns="http://www.w3.org/2000/svg">
</g>
<g xmlns="http://www.w3.org/2000/svg">
</g>
<g xmlns="http://www.w3.org/2000/svg">
</g>
<g xmlns="http://www.w3.org/2000/svg">
</g>
<g xmlns="http://www.w3.org/2000/svg">
</g>
<g xmlns="http://www.w3.org/2000/svg">
</g>
<g xmlns="http://www.w3.org/2000/svg">
</g>
<g xmlns="http://www.w3.org/2000/svg">
</g>
<g xmlns="http://www.w3.org/2000/svg">
</g>
<g xmlns="http://www.w3.org/2000/svg">
</g>
<g xmlns="http://www.w3.org/2000/svg">
</g>
<g xmlns="http://www.w3.org/2000/svg">
</g>
<g xmlns="http://www.w3.org/2000/svg">
</g>
</g></svg>
