<?xml version="1.0" encoding="UTF-8"?>
<svg width="24px" height="24px" viewBox="0 0 24 24" version="1.1" xmlns="http://www.w3.org/2000/svg" xmlns:xlink="http://www.w3.org/1999/xlink">
    <title>icons / range</title>
    <defs>
        <path d="M17.7493752,10.4238089 C17.5780079,10.5821642 17.3637986,10.6655091 17.1410211,10.6655091 C16.9182435,10.6655091 16.7040343,10.5821642 16.5326669,10.4238089 L12.8568368,6.83997777 L12.8568368,18.1665509 C12.8568368,18.6249479 12.4712603,19 12,19 C11.5287397,19 11.1431632,18.6249479 11.1431632,18.1665509 L11.1431632,6.83997777 L7.4673331,10.4238089 C7.13316673,10.748854 6.58479115,10.748854 6.25062478,10.4238089 C5.91645841,10.0987637 5.91645841,9.5653563 6.25062478,9.24031115 L11.3916458,4.23961661 C11.4687612,4.1646062 11.5630132,4.10626476 11.6658336,4.0645923 C11.7086755,4.04792332 11.7429489,4.03125434 11.7857908,4.03125434 C11.9228847,3.98958189 12.0771153,3.98958189 12.2142092,4.03125434 C12.2570511,4.03125434 12.2913245,4.04792332 12.3341664,4.0645923 C12.4369868,4.10626476 12.5312388,4.1646062 12.6083542,4.23961661 L17.7493752,9.24031115 C18.0835416,9.5653563 18.0835416,10.0987637 17.7493752,10.4238089" id="path-1"></path>
    </defs>
    <g id="icons-/-range" stroke="none" stroke-width="1" fill="none" fill-rule="evenodd">
        <circle id="Oval" fill="#FF974A" cx="12" cy="12" r="12"></circle>
        <mask id="mask-2" fill="white">
            <use xlink:href="#path-1"></use>
        </mask>
        <use id="Icon-Arrow-Down" fill="#FFFFFF" transform="translate(12.000000, 11.500000) rotate(-270.000000) translate(-12.000000, -11.500000) " xlink:href="#path-1"></use>
    </g>
</svg>