<?xml version="1.0" encoding="UTF-8"?>
<svg width="24px" height="24px" viewBox="0 0 24 24" version="1.1" xmlns="http://www.w3.org/2000/svg" xmlns:xlink="http://www.w3.org/1999/xlink">
    <title>icons / search</title>
    <defs>
        <path d="M2,8.5 C2,4.92 4.92,2 8.5,2 C12.08,2 15,4.92 15,8.5 C15,10.29 14.27,11.92 13.09,13.09 C11.92,14.27 10.29,15 8.5,15 C4.92,15 2,12.08 2,8.5 M19.71,18.29 L15.18,13.76 C16.32,12.31 17,10.48 17,8.5 C17,3.81 13.19,0 8.5,0 C3.81,0 0,3.81 0,8.5 C0,13.19 3.81,17 8.5,17 C10.48,17 12.31,16.32 13.76,15.18 L18.29,19.71 C18.49,19.9 18.74,20 19,20 C19.26,20 19.51,19.9 19.71,19.71 C20.1,19.32 20.1,18.68 19.71,18.29" id="path-1"></path>
    </defs>
    <g id="icons-/-search" stroke="none" stroke-width="1" fill="none" fill-rule="evenodd">
        <g id="Icons/Controls/Search" transform="translate(2.000000, 2.000000)">
            <mask id="mask-2" fill="white">
                <use xlink:href="#path-1"></use>
            </mask>
            <use id="Icon-Search" fill="#000000" xlink:href="#path-1"></use>
        </g>
    </g>
</svg>
